<svg xmlns="http://www.w3.org/2000/svg" viewBox="0 0 24 24">
  <symbol id="icon-sun" viewBox="0 0 24 24">
    <circle cx="12" cy="12" r="4" />
    <line x1="12" y1="1" x2="12" y2="3" />
    <line x1="12" y1="21" x2="12" y2="23" />
    <line x1="4.22" y1="4.22" x2="5.64" y2="5.64" />
    <line x1="18.36" y1="18.36" x2="19.78" y2="19.78" />
    <line x1="1" y1="12" x2="3" y2="12" />
    <line x1="21" y1="12" x2="23" y2="12" />
    <line x1="4.22" y1="19.78" x2="5.64" y2="18.36" />
    <line x1="18.36" y1="5.64" x2="19.78" y2="4.22" />
  </symbol>
  <symbol id="icon-moon" viewBox="0 0 24 24">
    <path d="M21 12.79A9 9 0 1 1 11.21 3a7 7 0 0 0 9.79 9.79z" />
  </symbol>
  <symbol id="icon-globe" viewBox="0 0 24 24">
    <circle cx="12" cy="12" r="10" />
    <line x1="2" y1="12" x2="22" y2="12" />
    <path d="M12 2a15.3 15.3 0 0 1 0 20" />
    <path d="M12 2a15.3 15.3 0 0 0 0 20" />
  </symbol>
  <symbol id="icon-menu" viewBox="0 0 24 24" fill="none" stroke="currentColor" stroke-width="2" stroke-linecap="round">
    <line x1="4" y1="7" x2="20" y2="7" />
    <line x1="4" y1="12" x2="20" y2="12" />
    <line x1="4" y1="17" x2="20" y2="17" />
  </symbol>
  <symbol id="icon-x" viewBox="0 0 24 24" fill="none" stroke="currentColor" stroke-width="2" stroke-linecap="round">
    <line x1="18" y1="6" x2="6" y2="18" />
    <line x1="6" y1="6" x2="18" y2="18" />
  </symbol>
  <symbol id="icon-chevron-right" viewBox="0 0 24 24">
    <path d="M9 18l6-6-6-6" />
  </symbol>
  <symbol id="icon-chevron-left" viewBox="0 0 24 24">
    <path d="M15 18l-6-6 6-6" />
  </symbol>
  <symbol id="icon-external-link" viewBox="0 0 24 24">
    <path d="M15 3h6v6" />
    <path d="M10 14L21 3" />
    <path d="M18 13v6a2 2 0 0 1-2 2H5a2 2 0 0 1-2-2V8a2 2 0 0 1 2-2h6" />
  </symbol>
</svg>
